<?xml version="1.0" encoding="UTF-8"?>
<svg id="Camada_1" data-name="Camada 1" xmlns="http://www.w3.org/2000/svg" viewBox="0 0 118 30">
  <defs>
    <style>
      .cls-1 {
        fill: #fff;
        stroke-width: 0px;
      }
    </style>
  </defs>
  <path class="cls-1" d="m1.49,29.34c-.59,0-.85-.43-.85-1.42V2.31c0-.99.26-1.42.85-1.42h2.47c.62,0,.98.27,1.3,1.04,1.47,3.42,1.69,5.09,3.26,8.67.07-3.45.64-5.11,1.21-8.35.17-.95.5-1.36,1.1-1.36h3.56c.59,0,.75.39.53,1.32-2.32,9.64-2.32,16.16,0,25.81.22.93.07,1.32-.53,1.32h-3.56c-.59,0-.93-.41-1.1-1.36-.33-1.87-.48-2.83-.76-4.77-1.97-3.29-2.63-5.01-4-8.34,0,5.31.24,7.98.79,13.08.1.97-.11,1.39-.7,1.39H1.49Z"/>
  <path class="cls-1" d="m19.36,29.34c-.59,0-.97-.39-1.22-1.3-2.57-9.52-2.57-16.33,0-25.85.25-.92.63-1.3,1.22-1.3h11.01c.59,0,.72.35.44,1.23-.51,1.63-.74,2.52-1.12,4.37-.21.99-.55,1.44-1.15,1.45-2.67.03-3.98.04-6.57.08-.25,1.23-.39,1.86-.44,3.15,1.83-.01,2.76-.02,4.64-.04.6,0,.84.46.81,1.52-.05,1.82-.06,2.75-.01,4.57.03,1.07-.21,1.53-.82,1.52-1.88-.01-2.81-.02-4.63-.03.05,1.44.18,2.15.45,3.53,2.59.03,3.91.05,6.57.08.6,0,.95.46,1.15,1.45.38,1.84.61,2.73,1.12,4.37.27.87.15,1.23-.44,1.23h-11.01Z"/>
  <path class="cls-1" d="m49.82.89c.59,0,.8.33.68,1.17-.7,5.23-.85,9.11-.72,15.85.04,1.87.08,3.24-.23,5.2-.35,2.18-.5,3.22-.69,5.05-.06.67-.25,1.17-.75,1.17h-3.16c-.52,0-1.03-.27-1.34-.97-.97-2.18-1.41-3.46-2.17-6.12-.16-.53-.33-.7-.53-.7-.09,0-.14,0-.23,0-.2,0-.34.17-.38.7-.17,2.66-.18,3.94-.02,6.12.05.67-.2.98-.7.98h-3.13c-.52,0-1.05-.48-1.44-1.2-1.06-1.9-1.54-2.97-2.42-5.19-.79-1.97-.92-3.33-.99-5.17-.24-6.61.13-10.34,1.79-15.68.27-.87.66-1.21,1.26-1.21h3.65c.59,0,.73.33.48,1.18-1.45,4.99-1.77,8.58-1.57,14.95.52-2.18.83-3.3,1.54-5.46.34-.99.77-1.32,1.44-1.33.43,0,.64,0,1.07,0,.66,0,1.05.33,1.29,1.32.5,2.17.8,3.29,1.45,5.48-.14-6.41.1-10,1.15-14.97.18-.84.51-1.18,1.13-1.18,1.41,0,2.12,0,3.54,0Z"/>
  <path class="cls-1" d="m57.67,29.34c-.62,0-.98-.23-1.26-1.07-1.09-3.28-1.71-5.33-2.8-9.57-.67-2.6-.89-3.46-.85-6.21.06-4.6.17-6.87.5-10.43.08-.84.38-1.17.97-1.17h3.77c.59,0,.92.33.92,1.17-.01,3.71-.01,6.13-.02,10.95,0,.61.08,1.14.21,1.8.5,2.46.75,3.74,1.22,6.07.1.54.2.7.49.7.11,0,.17,0,.28,0,.28,0,.39-.16.5-.7.52-2.35.78-3.64,1.27-6.11.13-.66.21-1.18.2-1.8-.03-4.8-.1-7.21-.32-10.91-.05-.84.19-1.17.78-1.17h3.72c.62,0,.92.33,1.04,1.17.51,3.56.68,5.84.77,10.43.05,2.74-.17,3.61-.86,6.2-1.13,4.24-1.81,6.3-3.07,9.58-.32.84-.71,1.07-1.32,1.07h-6.17Z"/>
  <path class="cls-1" d="m70.91,28.17c.29-1.61.41-2.5.6-4.38.1-.99.41-1.45,1.05-1.45,1.01,0,1.52,0,2.52,0,.56-5.48.56-8.87,0-14.35-1.01,0-1.51,0-2.52,0-.64,0-.95-.46-1.05-1.45-.19-1.91-.31-2.83-.61-4.46-.15-.84.03-1.17.62-1.17h10.11c.59,0,.99.34,1.25,1.2.51,1.66.72,2.58,1.07,4.5.18.99-.03,1.44-.65,1.44-.96,0-1.44-.01-2.4-.02.71,5.49.7,8.82-.01,14.3.96,0,1.45-.01,2.4-.02.62,0,.83.45.64,1.44-.34,1.88-.56,2.78-1.05,4.42-.26.86-.66,1.2-1.25,1.2h-10.11c-.59,0-.77-.33-.62-1.17Z"/>
  <path class="cls-1" d="m86.26,29.34c-.59,0-.72-.35-.45-1.22,2.81-9,2.81-17.02,0-26.02-.27-.87-.14-1.22.45-1.22,4.4,0,6.61,0,11.01,0,.59,0,.98.38,1.23,1.29.48,1.71.7,2.61,1.1,4.45.21.98.04,1.42-.53,1.42-2.55-.03-3.85-.05-6.49-.08.24,1.24.37,1.87.43,3.17,1.87.01,2.79.02,4.61.04.58,0,.86.46.88,1.51.04,1.8.04,2.7,0,4.5-.02,1.05-.29,1.51-.88,1.51-1.82.01-2.74.02-4.61.03-.06,1.45-.18,2.16-.45,3.54,2.64-.03,3.94-.05,6.49-.08.58,0,.75.43.53,1.42-.4,1.84-.62,2.74-1.1,4.45-.26.91-.64,1.29-1.23,1.29h-11.01Z"/>
  <path class="cls-1" d="m116.72.89c.59,0,.85.43.85,1.42,0,6.13,0,9.2,0,15.33,0,1.7.02,2.96-.36,4.91-.42,2.16-.66,3.24-1.2,5.38-.19.79-.5,1.41-1,1.41h-3.16c-.52,0-.9-.34-.93-1.15-.09-2.5-.12-3.77-.2-6.35-.02-.51-.13-.67-.3-.67-.08,0-.11,0-.19,0-.17,0-.32.16-.47.68-.75,2.59-1.16,3.88-2.06,6.35-.28.76-.71,1.13-1.21,1.13h-3.13c-.52,0-.73-.54-.71-1.32.04-2.04.05-3.11.02-5.29-.03-1.94.12-3.25.15-5.04.12-6.41-.28-9.81-1.77-15.5-.24-.92-.1-1.31.5-1.31h3.65c.59,0,.94.4,1.14,1.34,1.13,5.54,1.5,8.65,1.44,14.69.52-2.07.76-3.11,1.21-5.15.22-.93.55-1.25,1.09-1.24.35,0,.53,0,.88.01.54,0,.87.34,1.11,1.27.5,2.04.73,3.06,1.19,5.08.03-5.92-.18-8.92-.79-14.61-.1-.97.09-1.39.7-1.39h3.54Z"/>
</svg>